<svg xmlns="http://www.w3.org/2000/svg" width="100" height="100" viewBox="0 0 100 100">
  <defs>
    <linearGradient id="gGloss" x1="0" y1="0" x2="0" y2="1">
      <stop offset="0" stop-color="#fff" stop-opacity=".85"/><stop offset="1" stop-color="#fff" stop-opacity="0"/>
    </linearGradient>
  </defs>
  <!-- hexagonal brilliant gem, top-lit facets -->
  <polygon points="50,10 83,29 83,71 50,90 17,71 17,29" fill="#5a0c5e"/>
  <g stroke="#4a0a4e" stroke-width="1.4" stroke-linejoin="round">
    <polygon points="50,8 83,27 64,38 50,30" fill="#ff9dff"/>
    <polygon points="17,27 50,8 50,30 36,38" fill="#f56ff5"/>
    <polygon points="83,27 83,66 64,55 64,38" fill="#d544d5"/>
    <polygon points="17,27 36,38 36,55 17,66" fill="#c238c2"/>
    <polygon points="83,66 50,86 50,64 64,55" fill="#9c24a0"/>
    <polygon points="50,86 17,66 36,55 50,64" fill="#86208a"/>
    <polygon points="50,30 64,38 64,55 50,64 36,55 36,38" fill="#ff9dff"/>
  </g>
  <polygon points="50,30 64,38 50,45 36,38" fill="#fff" opacity=".5"/>
  <polygon points="50,12 74,26 62,33 50,27" fill="url(#gGloss)" opacity=".55"/>
</svg>
