<svg xmlns="http://www.w3.org/2000/svg" width="96" height="96" viewBox="0 0 96 96">
  <defs>
    <linearGradient id="g" x1="0" y1="0" x2="0" y2="1"><stop offset="0" stop-color="#fff3c8"/><stop offset=".4" stop-color="#c9921f"/><stop offset=".62" stop-color="#ffe089"/><stop offset="1" stop-color="#9a6c12"/></linearGradient>
    <radialGradient id="stud" cx="35%" cy="30%"><stop offset="0" stop-color="#fff7d8"/><stop offset=".5" stop-color="#e0ad32"/><stop offset="1" stop-color="#6e4d09"/></radialGradient>
  </defs>
  <rect x="1.5" y="1.5" width="93" height="93" rx="18" fill="none" stroke="#241803" stroke-width="2"/>
  <rect x="7" y="7" width="82" height="82" rx="15" fill="none" stroke="url(#g)" stroke-width="10"/>
  <rect x="11.5" y="11.5" width="73" height="73" rx="12" fill="none" stroke="#ffe9ad" stroke-width="1.2" opacity=".6"/>
  <rect x="13" y="13" width="70" height="70" rx="10" fill="none" stroke="#3a2806" stroke-width="2"/>
  <g stroke="#5e3f06" stroke-width=".6" stroke-linejoin="round">
    <path d="M16 11 L21 16 L16 21 L11 16 Z" fill="url(#stud)"/><path d="M80 11 L85 16 L80 21 L75 16 Z" fill="url(#stud)"/>
    <path d="M16 75 L21 80 L16 85 L11 80 Z" fill="url(#stud)"/><path d="M80 75 L85 80 L80 85 L75 80 Z" fill="url(#stud)"/>
  </g>
  <g fill="#fff" opacity=".5"><circle cx="15" cy="14.5" r="1.1"/><circle cx="79" cy="14.5" r="1.1"/><circle cx="15" cy="78.5" r="1.1"/><circle cx="79" cy="78.5" r="1.1"/></g>
</svg>
